<svg xmlns="http://www.w3.org/2000/svg" xmlns:xlink="http://www.w3.org/1999/xlink" viewBox="0 0 345 113"><defs><style>.cls-1{fill:#fff;}.cls-2{fill:url(#linear-gradient);}.cls-3{fill:url(#linear-gradient-2);}.cls-4{fill:#115999;}.cls-5{font-size:25px;fill:#3d9cea;font-family:Lato-Regular, Lato;}.cls-6{font-size:15px;}</style><linearGradient id="linear-gradient" x1="16.37" y1="90.36" x2="16.37" y2="9.05" gradientUnits="userSpaceOnUse"><stop offset="0" stop-color="#ffbc05"/><stop offset="0.26" stop-color="#fcb507"/><stop offset="0.61" stop-color="#f4a30b"/><stop offset="1" stop-color="#e88812"/></linearGradient><linearGradient id="linear-gradient-2" x1="48.62" y1="90.8" x2="48.62" y2="8.94" xlink:href="#linear-gradient"/></defs><g id="Layer_2" data-name="Layer 2"><g id="Layer_6" data-name="Layer 6"><path class="cls-1" d="M0,10.46V90.54A10.46,10.46,0,0,0,10.46,101H204a6,6,0,0,1,6,6h0a6,6,0,0,0,6,6H334.54A10.46,10.46,0,0,0,345,102.54V10.46A10.46,10.46,0,0,0,334.54,0H10.46A10.46,10.46,0,0,0,0,10.46Z"/><path class="cls-2" d="M24,90.36V26.94c0-5.78-1.53-10.28-4.55-13.37-2.57-2.63-6.13-4.15-10.6-4.52v9.29a6.89,6.89,0,0,1,3.51,2.18A9.55,9.55,0,0,1,14.37,27V90.31Z"/><path class="cls-3" d="M61.5,13.58c-2.64-2.71-6.33-4.25-11-4.57-.65,0-1.33-.07-2-.07S47.22,9,46.6,9c-4.57.34-8.23,1.88-10.86,4.57-3,3.08-4.55,7.58-4.55,13.36V72.8c0,5.78,1.53,10.28,4.55,13.36,2.63,2.69,6.28,4.23,10.86,4.57.62,0,1.26.07,1.92.07s1.37,0,2-.07c4.63-.32,8.32-1.86,11-4.57,3-3.08,4.55-7.58,4.55-13.36V26.94C66.05,21.16,64.52,16.66,61.5,13.58ZM57,28.33a8.48,8.48,0,0,1-3.77,4.88,1.31,1.31,0,0,0-.66,1.12V45.67A1.5,1.5,0,0,1,51,47.18H46.59a1.5,1.5,0,0,1-1.51-1.51V34.34a1.26,1.26,0,0,0-.59-1.09,8.47,8.47,0,0,1-4.19-7.31h0c0-.1,0-.22,0-.33A8.87,8.87,0,0,1,40.53,24a8.49,8.49,0,0,1,14.75-3.52s0,0,0,0a8.36,8.36,0,0,1,1.91,4.15A8.54,8.54,0,0,1,57,28.33Z"/><path class="cls-4" d="M171.12,81.39h-3.26a1.48,1.48,0,0,1-1-.31,2.11,2.11,0,0,1-.58-.81l-6.85-17H130.79l-6.86,17a1.82,1.82,0,0,1-.57.79,1.55,1.55,0,0,1-1,.33h-3.22L143.05,23h4.17ZM158.2,60.17,146.31,30.65a31.27,31.27,0,0,1-1.2-3.47c-.16.66-.34,1.29-.53,1.88s-.4,1.13-.62,1.63L132.07,60.17Z"/><path class="cls-4" d="M225.91,23V81.39h-2a1.91,1.91,0,0,1-.88-.19,1.93,1.93,0,0,1-.68-.64l-38-50.7a21.79,21.79,0,0,1,.13,2.36V81.39h-3.72V23h2.11a2.33,2.33,0,0,1,.89.14,2.16,2.16,0,0,1,.68.64l37.86,50.58a21.79,21.79,0,0,1-.13-2.36V23Z"/><path class="cls-4" d="M285.31,71.56a1,1,0,0,1,.7.29l1.66,1.77a27.73,27.73,0,0,1-3.95,3.49,23.52,23.52,0,0,1-4.66,2.64,27.5,27.5,0,0,1-5.57,1.7,34.53,34.53,0,0,1-6.67.6,28.38,28.38,0,0,1-11.13-2.13,25,25,0,0,1-8.69-6,27.16,27.16,0,0,1-5.63-9.43,35.82,35.82,0,0,1-2-12.3A34.18,34.18,0,0,1,241.43,40a27.78,27.78,0,0,1,5.78-9.44,25.8,25.8,0,0,1,8.91-6.11,29.68,29.68,0,0,1,11.48-2.16,27.17,27.17,0,0,1,19,7.1l-1.28,1.86a1.14,1.14,0,0,1-1,.49,3.33,3.33,0,0,1-1.61-.91,21.68,21.68,0,0,0-3.09-2,26.85,26.85,0,0,0-4.94-2,24.12,24.12,0,0,0-7.08-.91,25.14,25.14,0,0,0-9.68,1.82,21.23,21.23,0,0,0-7.55,5.2,24,24,0,0,0-4.94,8.26,31.82,31.82,0,0,0-1.77,10.94,32,32,0,0,0,1.79,11.06,24.14,24.14,0,0,0,4.94,8.24,21.35,21.35,0,0,0,7.41,5.16A23.68,23.68,0,0,0,267,78.41a33.54,33.54,0,0,0,5.6-.41,21.83,21.83,0,0,0,4.52-1.24,20.63,20.63,0,0,0,3.84-2,30.2,30.2,0,0,0,3.51-2.81,2.07,2.07,0,0,1,.41-.27A.91.91,0,0,1,285.31,71.56Z"/><path class="cls-4" d="M112.46,40a26.27,26.27,0,0,0-5.7-9.21A24.74,24.74,0,0,0,98,25a30.71,30.71,0,0,0-11.34-2H68.69a31.12,31.12,0,0,1,.24,3.43H86.61a25.48,25.48,0,0,1,9.58,1.73,20.25,20.25,0,0,1,7.43,5,22.58,22.58,0,0,1,4.79,8.09,32.53,32.53,0,0,1,1.69,10.9,32.73,32.73,0,0,1-1.69,10.94,22.66,22.66,0,0,1-4.79,8.09,20.5,20.5,0,0,1-7.43,5A25.68,25.68,0,0,1,86.61,78H68.51a23.88,23.88,0,0,1-.85,3.43h19a30.71,30.71,0,0,0,11.34-2,24.74,24.74,0,0,0,8.81-5.82,26.32,26.32,0,0,0,5.7-9.2,34.8,34.8,0,0,0,2-12.18A34.61,34.61,0,0,0,112.46,40Z"/><path class="cls-4" d="M334.07,77.88,334,81.39H299V23h35v3.51H303.23V50.09h25.6v3.43h-25.6V77.88Z"/><text class="cls-5" transform="translate(221.69 105.13)">who<tspan class="cls-6" x="45.64" y="-3.07">’</tspan><tspan x="48.06" y="0">s here</tspan></text></g></g></svg>